<mxfile host="app.diagrams.net" modified="2022-06-22T03:54:48.873Z" agent="5.0 (Windows NT 10.0; Win64; x64) AppleWebKit/537.36 (KHTML, like Gecko) Chrome/102.0.0.0 Safari/537.36" etag="rinQUPTRWnCsj9c2HuHB" version="20.0.1" type="github">
  <diagram id="5hiqjDNLy4zyRDHusccU" name="Page-1">
    <mxGraphModel dx="2862" dy="-78" grid="0" gridSize="10" guides="1" tooltips="1" connect="1" arrows="1" fold="1" page="0" pageScale="1" pageWidth="1100" pageHeight="850" math="0" shadow="0">
      <root>
        <mxCell id="0" />
        <mxCell id="1" parent="0" />
        <mxCell id="PGIYKK-JV2RwreKTZmfG-104" value="" style="rounded=1;whiteSpace=wrap;html=1;fontSize=16;fillColor=#ffff88;strokeColor=#36393d;" vertex="1" parent="1">
          <mxGeometry x="145" y="1994" width="682" height="149" as="geometry" />
        </mxCell>
        <mxCell id="PGIYKK-JV2RwreKTZmfG-103" value="" style="rounded=1;whiteSpace=wrap;html=1;fontSize=16;fillColor=#ffcccc;strokeColor=#36393d;" vertex="1" parent="1">
          <mxGeometry x="145" y="1849" width="682" height="145" as="geometry" />
        </mxCell>
        <mxCell id="PGIYKK-JV2RwreKTZmfG-53" style="edgeStyle=orthogonalEdgeStyle;rounded=0;orthogonalLoop=1;jettySize=auto;html=1;entryX=0;entryY=0.5;entryDx=0;entryDy=0;fontSize=24;" edge="1" parent="1" target="PGIYKK-JV2RwreKTZmfG-51">
          <mxGeometry relative="1" as="geometry">
            <mxPoint x="-120" y="1749" as="sourcePoint" />
            <Array as="points">
              <mxPoint x="-94" y="1749" />
            </Array>
          </mxGeometry>
        </mxCell>
        <mxCell id="PGIYKK-JV2RwreKTZmfG-65" style="edgeStyle=orthogonalEdgeStyle;rounded=0;orthogonalLoop=1;jettySize=auto;html=1;entryX=0;entryY=0.5;entryDx=0;entryDy=0;fontSize=24;" edge="1" parent="1" target="PGIYKK-JV2RwreKTZmfG-9">
          <mxGeometry relative="1" as="geometry">
            <mxPoint x="-124" y="1496" as="sourcePoint" />
            <Array as="points">
              <mxPoint x="-82" y="1496" />
              <mxPoint x="-44" y="1496" />
            </Array>
          </mxGeometry>
        </mxCell>
        <mxCell id="PGIYKK-JV2RwreKTZmfG-9" value="Conv2D" style="rounded=1;whiteSpace=wrap;html=1;fontSize=24;fillColor=#ffe6cc;strokeColor=#d79b00;" vertex="1" parent="1">
          <mxGeometry x="-7" y="1463" width="150" height="65" as="geometry" />
        </mxCell>
        <mxCell id="PGIYKK-JV2RwreKTZmfG-10" value="Conv2D" style="rounded=1;whiteSpace=wrap;html=1;fontSize=24;fillColor=#ffe6cc;strokeColor=#d79b00;" vertex="1" parent="1">
          <mxGeometry x="183" y="1463" width="150" height="65" as="geometry" />
        </mxCell>
        <mxCell id="PGIYKK-JV2RwreKTZmfG-11" value="Conv2D" style="rounded=1;whiteSpace=wrap;html=1;fontSize=24;fillColor=#ffe6cc;strokeColor=#d79b00;" vertex="1" parent="1">
          <mxGeometry x="373" y="1463" width="150" height="65" as="geometry" />
        </mxCell>
        <mxCell id="PGIYKK-JV2RwreKTZmfG-12" value="MaxPool2D" style="rounded=1;whiteSpace=wrap;html=1;fontSize=24;fillColor=#f8cecc;strokeColor=#b85450;" vertex="1" parent="1">
          <mxGeometry x="563" y="1463" width="150" height="65" as="geometry" />
        </mxCell>
        <mxCell id="PGIYKK-JV2RwreKTZmfG-13" value="Conv2D" style="rounded=1;whiteSpace=wrap;html=1;fontSize=24;fillColor=#ffe6cc;strokeColor=#d79b00;" vertex="1" parent="1">
          <mxGeometry x="-7" y="1569" width="150" height="65" as="geometry" />
        </mxCell>
        <mxCell id="PGIYKK-JV2RwreKTZmfG-14" value="Conv2D" style="rounded=1;whiteSpace=wrap;html=1;fontSize=24;fillColor=#ffe6cc;strokeColor=#d79b00;" vertex="1" parent="1">
          <mxGeometry x="185" y="1569" width="150" height="65" as="geometry" />
        </mxCell>
        <mxCell id="PGIYKK-JV2RwreKTZmfG-15" value="Conv2D" style="rounded=1;whiteSpace=wrap;html=1;fontSize=24;fillColor=#ffe6cc;strokeColor=#d79b00;" vertex="1" parent="1">
          <mxGeometry x="377" y="1569" width="150" height="65" as="geometry" />
        </mxCell>
        <mxCell id="PGIYKK-JV2RwreKTZmfG-23" value="" style="endArrow=classic;html=1;rounded=0;fontSize=24;entryX=0;entryY=0.5;entryDx=0;entryDy=0;exitX=1;exitY=0.5;exitDx=0;exitDy=0;" edge="1" parent="1" source="PGIYKK-JV2RwreKTZmfG-9" target="PGIYKK-JV2RwreKTZmfG-10">
          <mxGeometry width="50" height="50" relative="1" as="geometry">
            <mxPoint x="573" y="1947" as="sourcePoint" />
            <mxPoint x="1078" y="1611" as="targetPoint" />
          </mxGeometry>
        </mxCell>
        <mxCell id="PGIYKK-JV2RwreKTZmfG-25" value="" style="endArrow=classic;html=1;rounded=0;fontSize=24;entryX=0;entryY=0.5;entryDx=0;entryDy=0;exitX=1;exitY=0.5;exitDx=0;exitDy=0;" edge="1" parent="1" source="PGIYKK-JV2RwreKTZmfG-10" target="PGIYKK-JV2RwreKTZmfG-11">
          <mxGeometry width="50" height="50" relative="1" as="geometry">
            <mxPoint x="331.5" y="1422" as="sourcePoint" />
            <mxPoint x="371.5" y="1422" as="targetPoint" />
          </mxGeometry>
        </mxCell>
        <mxCell id="PGIYKK-JV2RwreKTZmfG-26" value="" style="endArrow=classic;html=1;rounded=0;fontSize=24;entryX=0;entryY=0.5;entryDx=0;entryDy=0;exitX=1;exitY=0.5;exitDx=0;exitDy=0;" edge="1" parent="1" source="PGIYKK-JV2RwreKTZmfG-11" target="PGIYKK-JV2RwreKTZmfG-12">
          <mxGeometry width="50" height="50" relative="1" as="geometry">
            <mxPoint x="306" y="1415" as="sourcePoint" />
            <mxPoint x="346" y="1415" as="targetPoint" />
          </mxGeometry>
        </mxCell>
        <mxCell id="PGIYKK-JV2RwreKTZmfG-28" value="" style="endArrow=classic;html=1;rounded=0;fontSize=24;entryX=0;entryY=0.5;entryDx=0;entryDy=0;exitX=1;exitY=0.5;exitDx=0;exitDy=0;" edge="1" parent="1" source="PGIYKK-JV2RwreKTZmfG-13" target="PGIYKK-JV2RwreKTZmfG-14">
          <mxGeometry width="50" height="50" relative="1" as="geometry">
            <mxPoint x="-436" y="1541" as="sourcePoint" />
            <mxPoint x="-396" y="1541" as="targetPoint" />
          </mxGeometry>
        </mxCell>
        <mxCell id="PGIYKK-JV2RwreKTZmfG-35" value="" style="endArrow=classic;html=1;rounded=0;fontSize=24;entryX=0;entryY=0.5;entryDx=0;entryDy=0;exitX=1;exitY=0.5;exitDx=0;exitDy=0;" edge="1" parent="1" source="PGIYKK-JV2RwreKTZmfG-14" target="PGIYKK-JV2RwreKTZmfG-15">
          <mxGeometry width="50" height="50" relative="1" as="geometry">
            <mxPoint x="-416" y="1561" as="sourcePoint" />
            <mxPoint x="-376" y="1561" as="targetPoint" />
          </mxGeometry>
        </mxCell>
        <mxCell id="PGIYKK-JV2RwreKTZmfG-56" style="edgeStyle=orthogonalEdgeStyle;rounded=0;orthogonalLoop=1;jettySize=auto;html=1;fontSize=24;" edge="1" parent="1" source="PGIYKK-JV2RwreKTZmfG-36" target="PGIYKK-JV2RwreKTZmfG-55">
          <mxGeometry relative="1" as="geometry" />
        </mxCell>
        <mxCell id="PGIYKK-JV2RwreKTZmfG-36" value="LSTM" style="rounded=1;whiteSpace=wrap;html=1;fontSize=24;fillColor=#e1d5e7;strokeColor=#9673a6;" vertex="1" parent="1">
          <mxGeometry x="816" y="1551.5" width="212" height="100" as="geometry" />
        </mxCell>
        <mxCell id="PGIYKK-JV2RwreKTZmfG-39" value="&lt;font style=&quot;font-size: 47px;&quot;&gt;+&lt;/font&gt;" style="ellipse;whiteSpace=wrap;html=1;aspect=fixed;fontSize=24;" vertex="1" parent="1">
          <mxGeometry x="756" y="1587" width="29" height="29" as="geometry" />
        </mxCell>
        <mxCell id="PGIYKK-JV2RwreKTZmfG-40" value="" style="endArrow=classic;html=1;rounded=0;fontSize=47;entryX=0;entryY=0.5;entryDx=0;entryDy=0;exitX=1;exitY=0.5;exitDx=0;exitDy=0;" edge="1" parent="1" source="PGIYKK-JV2RwreKTZmfG-39" target="PGIYKK-JV2RwreKTZmfG-36">
          <mxGeometry width="50" height="50" relative="1" as="geometry">
            <mxPoint x="618" y="1621.5" as="sourcePoint" />
            <mxPoint x="668" y="1571.5" as="targetPoint" />
          </mxGeometry>
        </mxCell>
        <mxCell id="PGIYKK-JV2RwreKTZmfG-42" value="" style="curved=1;endArrow=classic;html=1;rounded=0;fontSize=47;entryX=0;entryY=0.5;entryDx=0;entryDy=0;exitX=1;exitY=0.5;exitDx=0;exitDy=0;" edge="1" parent="1" source="PGIYKK-JV2RwreKTZmfG-12" target="PGIYKK-JV2RwreKTZmfG-13">
          <mxGeometry width="50" height="50" relative="1" as="geometry">
            <mxPoint x="603" y="1655" as="sourcePoint" />
            <mxPoint x="653" y="1605" as="targetPoint" />
            <Array as="points">
              <mxPoint x="797" y="1571" />
              <mxPoint x="-79" y="1529" />
            </Array>
          </mxGeometry>
        </mxCell>
        <mxCell id="PGIYKK-JV2RwreKTZmfG-52" style="edgeStyle=orthogonalEdgeStyle;rounded=0;orthogonalLoop=1;jettySize=auto;html=1;exitX=1;exitY=0.5;exitDx=0;exitDy=0;entryX=0;entryY=0.5;entryDx=0;entryDy=0;fontSize=24;" edge="1" parent="1" source="PGIYKK-JV2RwreKTZmfG-43" target="PGIYKK-JV2RwreKTZmfG-39">
          <mxGeometry relative="1" as="geometry" />
        </mxCell>
        <mxCell id="PGIYKK-JV2RwreKTZmfG-43" value="MaxPool2D" style="rounded=1;whiteSpace=wrap;html=1;fontSize=24;fillColor=#f8cecc;strokeColor=#b85450;" vertex="1" parent="1">
          <mxGeometry x="567" y="1569" width="150" height="65" as="geometry" />
        </mxCell>
        <mxCell id="PGIYKK-JV2RwreKTZmfG-44" value="" style="endArrow=classic;html=1;rounded=0;fontSize=24;entryX=0;entryY=0.5;entryDx=0;entryDy=0;exitX=1;exitY=0.5;exitDx=0;exitDy=0;" edge="1" parent="1" target="PGIYKK-JV2RwreKTZmfG-43" source="PGIYKK-JV2RwreKTZmfG-15">
          <mxGeometry width="50" height="50" relative="1" as="geometry">
            <mxPoint x="543" y="1622" as="sourcePoint" />
            <mxPoint x="350" y="1521" as="targetPoint" />
          </mxGeometry>
        </mxCell>
        <mxCell id="PGIYKK-JV2RwreKTZmfG-45" value="" style="curved=1;endArrow=classic;html=1;rounded=0;fontSize=47;entryX=0;entryY=0.5;entryDx=0;entryDy=0;exitX=1;exitY=0.5;exitDx=0;exitDy=0;" edge="1" parent="1" target="PGIYKK-JV2RwreKTZmfG-20">
          <mxGeometry width="50" height="50" relative="1" as="geometry">
            <mxPoint x="720.9999999999995" y="1665" as="sourcePoint" />
            <mxPoint x="685" y="1473.5" as="targetPoint" />
            <Array as="points">
              <mxPoint x="814" y="1591" />
              <mxPoint x="-50" y="1641" />
            </Array>
          </mxGeometry>
        </mxCell>
        <mxCell id="PGIYKK-JV2RwreKTZmfG-57" style="edgeStyle=orthogonalEdgeStyle;rounded=0;orthogonalLoop=1;jettySize=auto;html=1;entryX=0;entryY=0.5;entryDx=0;entryDy=0;fontSize=24;" edge="1" parent="1" source="PGIYKK-JV2RwreKTZmfG-51" target="PGIYKK-JV2RwreKTZmfG-55">
          <mxGeometry relative="1" as="geometry" />
        </mxCell>
        <mxCell id="PGIYKK-JV2RwreKTZmfG-51" value="Embedding" style="rounded=1;whiteSpace=wrap;html=1;fontSize=24;fillColor=#d5e8d4;strokeColor=#82b366;" vertex="1" parent="1">
          <mxGeometry x="250" y="1695" width="223" height="108" as="geometry" />
        </mxCell>
        <mxCell id="PGIYKK-JV2RwreKTZmfG-82" style="edgeStyle=orthogonalEdgeStyle;rounded=0;orthogonalLoop=1;jettySize=auto;html=1;exitX=0.5;exitY=1;exitDx=0;exitDy=0;fontSize=24;" edge="1" parent="1" source="PGIYKK-JV2RwreKTZmfG-55" target="PGIYKK-JV2RwreKTZmfG-58">
          <mxGeometry relative="1" as="geometry" />
        </mxCell>
        <mxCell id="PGIYKK-JV2RwreKTZmfG-55" value="&lt;font style=&quot;font-size: 47px;&quot;&gt;+&lt;/font&gt;" style="ellipse;whiteSpace=wrap;html=1;aspect=fixed;fontSize=24;" vertex="1" parent="1">
          <mxGeometry x="907.5" y="1734.5" width="29" height="29" as="geometry" />
        </mxCell>
        <mxCell id="PGIYKK-JV2RwreKTZmfG-83" style="edgeStyle=orthogonalEdgeStyle;rounded=0;orthogonalLoop=1;jettySize=auto;html=1;exitX=0.5;exitY=1;exitDx=0;exitDy=0;fontSize=24;" edge="1" parent="1" source="PGIYKK-JV2RwreKTZmfG-58" target="PGIYKK-JV2RwreKTZmfG-59">
          <mxGeometry relative="1" as="geometry" />
        </mxCell>
        <mxCell id="PGIYKK-JV2RwreKTZmfG-58" value="Linear" style="rounded=1;whiteSpace=wrap;html=1;fontSize=24;fillColor=#dae8fc;strokeColor=#6c8ebf;" vertex="1" parent="1">
          <mxGeometry x="854" y="1834" width="136" height="75" as="geometry" />
        </mxCell>
        <mxCell id="PGIYKK-JV2RwreKTZmfG-87" style="edgeStyle=orthogonalEdgeStyle;rounded=0;orthogonalLoop=1;jettySize=auto;html=1;exitX=0;exitY=0.75;exitDx=0;exitDy=0;entryX=1;entryY=0.5;entryDx=0;entryDy=0;fontSize=24;" edge="1" parent="1" source="PGIYKK-JV2RwreKTZmfG-59" target="PGIYKK-JV2RwreKTZmfG-75">
          <mxGeometry relative="1" as="geometry">
            <Array as="points">
              <mxPoint x="840" y="2017" />
              <mxPoint x="840" y="2059" />
            </Array>
          </mxGeometry>
        </mxCell>
        <mxCell id="PGIYKK-JV2RwreKTZmfG-88" style="edgeStyle=orthogonalEdgeStyle;rounded=0;orthogonalLoop=1;jettySize=auto;html=1;exitX=0;exitY=0.25;exitDx=0;exitDy=0;entryX=1;entryY=0.5;entryDx=0;entryDy=0;fontSize=24;" edge="1" parent="1" source="PGIYKK-JV2RwreKTZmfG-59" target="PGIYKK-JV2RwreKTZmfG-74">
          <mxGeometry relative="1" as="geometry">
            <Array as="points">
              <mxPoint x="839" y="1980" />
              <mxPoint x="839" y="1939" />
            </Array>
          </mxGeometry>
        </mxCell>
        <mxCell id="PGIYKK-JV2RwreKTZmfG-59" value="Linear" style="rounded=1;whiteSpace=wrap;html=1;fontSize=24;fillColor=#dae8fc;strokeColor=#6c8ebf;" vertex="1" parent="1">
          <mxGeometry x="854" y="1961" width="136" height="75" as="geometry" />
        </mxCell>
        <mxCell id="PGIYKK-JV2RwreKTZmfG-89" style="edgeStyle=orthogonalEdgeStyle;rounded=0;orthogonalLoop=1;jettySize=auto;html=1;exitX=0;exitY=0.5;exitDx=0;exitDy=0;entryX=1;entryY=0.5;entryDx=0;entryDy=0;fontSize=24;" edge="1" parent="1" source="PGIYKK-JV2RwreKTZmfG-74" target="PGIYKK-JV2RwreKTZmfG-76">
          <mxGeometry relative="1" as="geometry" />
        </mxCell>
        <mxCell id="PGIYKK-JV2RwreKTZmfG-74" value="Linear" style="rounded=1;whiteSpace=wrap;html=1;fontSize=24;fillColor=#dae8fc;strokeColor=#6c8ebf;" vertex="1" parent="1">
          <mxGeometry x="669" y="1901" width="136" height="75" as="geometry" />
        </mxCell>
        <mxCell id="PGIYKK-JV2RwreKTZmfG-90" style="edgeStyle=orthogonalEdgeStyle;rounded=0;orthogonalLoop=1;jettySize=auto;html=1;exitX=0;exitY=0.5;exitDx=0;exitDy=0;entryX=1;entryY=0.5;entryDx=0;entryDy=0;fontSize=24;" edge="1" parent="1" source="PGIYKK-JV2RwreKTZmfG-75" target="PGIYKK-JV2RwreKTZmfG-77">
          <mxGeometry relative="1" as="geometry" />
        </mxCell>
        <mxCell id="PGIYKK-JV2RwreKTZmfG-75" value="Linear" style="rounded=1;whiteSpace=wrap;html=1;fontSize=24;fillColor=#dae8fc;strokeColor=#6c8ebf;" vertex="1" parent="1">
          <mxGeometry x="669" y="2021" width="136" height="75" as="geometry" />
        </mxCell>
        <mxCell id="PGIYKK-JV2RwreKTZmfG-92" style="edgeStyle=orthogonalEdgeStyle;rounded=0;orthogonalLoop=1;jettySize=auto;html=1;exitX=0;exitY=0.5;exitDx=0;exitDy=0;entryX=1;entryY=0.5;entryDx=0;entryDy=0;fontSize=24;" edge="1" parent="1" source="PGIYKK-JV2RwreKTZmfG-76" target="PGIYKK-JV2RwreKTZmfG-78">
          <mxGeometry relative="1" as="geometry" />
        </mxCell>
        <mxCell id="PGIYKK-JV2RwreKTZmfG-76" value="Linear" style="rounded=1;whiteSpace=wrap;html=1;fontSize=24;fillColor=#dae8fc;strokeColor=#6c8ebf;" vertex="1" parent="1">
          <mxGeometry x="502" y="1901" width="136" height="75" as="geometry" />
        </mxCell>
        <mxCell id="PGIYKK-JV2RwreKTZmfG-91" style="edgeStyle=orthogonalEdgeStyle;rounded=0;orthogonalLoop=1;jettySize=auto;html=1;exitX=0;exitY=0.5;exitDx=0;exitDy=0;entryX=1;entryY=0.5;entryDx=0;entryDy=0;fontSize=24;" edge="1" parent="1" source="PGIYKK-JV2RwreKTZmfG-77" target="PGIYKK-JV2RwreKTZmfG-79">
          <mxGeometry relative="1" as="geometry" />
        </mxCell>
        <mxCell id="PGIYKK-JV2RwreKTZmfG-77" value="Linear" style="rounded=1;whiteSpace=wrap;html=1;fontSize=24;fillColor=#dae8fc;strokeColor=#6c8ebf;" vertex="1" parent="1">
          <mxGeometry x="502" y="2021" width="136" height="75" as="geometry" />
        </mxCell>
        <mxCell id="PGIYKK-JV2RwreKTZmfG-93" style="edgeStyle=orthogonalEdgeStyle;rounded=0;orthogonalLoop=1;jettySize=auto;html=1;exitX=0;exitY=0.5;exitDx=0;exitDy=0;entryX=1;entryY=0.5;entryDx=0;entryDy=0;fontSize=24;" edge="1" parent="1" source="PGIYKK-JV2RwreKTZmfG-78" target="PGIYKK-JV2RwreKTZmfG-80">
          <mxGeometry relative="1" as="geometry" />
        </mxCell>
        <mxCell id="PGIYKK-JV2RwreKTZmfG-78" value="Linear" style="rounded=1;whiteSpace=wrap;html=1;fontSize=24;fillColor=#dae8fc;strokeColor=#6c8ebf;" vertex="1" parent="1">
          <mxGeometry x="333" y="1901" width="136" height="75" as="geometry" />
        </mxCell>
        <mxCell id="PGIYKK-JV2RwreKTZmfG-94" style="edgeStyle=orthogonalEdgeStyle;rounded=0;orthogonalLoop=1;jettySize=auto;html=1;exitX=0;exitY=0.5;exitDx=0;exitDy=0;entryX=1;entryY=0.5;entryDx=0;entryDy=0;fontSize=24;" edge="1" parent="1" source="PGIYKK-JV2RwreKTZmfG-79" target="PGIYKK-JV2RwreKTZmfG-81">
          <mxGeometry relative="1" as="geometry" />
        </mxCell>
        <mxCell id="PGIYKK-JV2RwreKTZmfG-79" value="Linear" style="rounded=1;whiteSpace=wrap;html=1;fontSize=24;fillColor=#dae8fc;strokeColor=#6c8ebf;" vertex="1" parent="1">
          <mxGeometry x="333" y="2021" width="136" height="75" as="geometry" />
        </mxCell>
        <mxCell id="PGIYKK-JV2RwreKTZmfG-80" value="Linear" style="rounded=1;whiteSpace=wrap;html=1;fontSize=24;fillColor=#dae8fc;strokeColor=#6c8ebf;" vertex="1" parent="1">
          <mxGeometry x="162" y="1901" width="136" height="75" as="geometry" />
        </mxCell>
        <mxCell id="PGIYKK-JV2RwreKTZmfG-81" value="Linear" style="rounded=1;whiteSpace=wrap;html=1;fontSize=24;fillColor=#dae8fc;strokeColor=#6c8ebf;" vertex="1" parent="1">
          <mxGeometry x="162" y="2021" width="136" height="75" as="geometry" />
        </mxCell>
        <mxCell id="PGIYKK-JV2RwreKTZmfG-95" value="&lt;font style=&quot;font-size: 16px;&quot;&gt;25x1&lt;/font&gt;" style="text;html=1;align=center;verticalAlign=middle;resizable=0;points=[];autosize=1;strokeColor=none;fillColor=none;fontSize=24;" vertex="1" parent="1">
          <mxGeometry x="205" y="1871.5" width="45" height="36" as="geometry" />
        </mxCell>
        <mxCell id="PGIYKK-JV2RwreKTZmfG-96" value="64x1" style="text;html=1;align=center;verticalAlign=middle;resizable=0;points=[];autosize=1;strokeColor=none;fillColor=none;fontSize=16;" vertex="1" parent="1">
          <mxGeometry x="378.5" y="1879" width="45" height="23" as="geometry" />
        </mxCell>
        <mxCell id="PGIYKK-JV2RwreKTZmfG-97" value="128x1" style="text;html=1;align=center;verticalAlign=middle;resizable=0;points=[];autosize=1;strokeColor=none;fillColor=none;fontSize=16;" vertex="1" parent="1">
          <mxGeometry x="543" y="1879" width="54" height="23" as="geometry" />
        </mxCell>
        <mxCell id="PGIYKK-JV2RwreKTZmfG-98" value="256x1" style="text;html=1;align=center;verticalAlign=middle;resizable=0;points=[];autosize=1;strokeColor=none;fillColor=none;fontSize=16;" vertex="1" parent="1">
          <mxGeometry x="710" y="1879" width="54" height="23" as="geometry" />
        </mxCell>
        <mxCell id="PGIYKK-JV2RwreKTZmfG-99" value="&lt;font style=&quot;font-size: 16px;&quot;&gt;1x1&lt;/font&gt;" style="text;html=1;align=center;verticalAlign=middle;resizable=0;points=[];autosize=1;strokeColor=none;fillColor=none;fontSize=24;" vertex="1" parent="1">
          <mxGeometry x="212.5" y="2086" width="36" height="36" as="geometry" />
        </mxCell>
        <mxCell id="PGIYKK-JV2RwreKTZmfG-100" value="64x1" style="text;html=1;align=center;verticalAlign=middle;resizable=0;points=[];autosize=1;strokeColor=none;fillColor=none;fontSize=16;" vertex="1" parent="1">
          <mxGeometry x="381" y="2093.5" width="45" height="23" as="geometry" />
        </mxCell>
        <mxCell id="PGIYKK-JV2RwreKTZmfG-101" value="128x1" style="text;html=1;align=center;verticalAlign=middle;resizable=0;points=[];autosize=1;strokeColor=none;fillColor=none;fontSize=16;" vertex="1" parent="1">
          <mxGeometry x="545.5" y="2093.5" width="54" height="23" as="geometry" />
        </mxCell>
        <mxCell id="PGIYKK-JV2RwreKTZmfG-102" value="256x1" style="text;html=1;align=center;verticalAlign=middle;resizable=0;points=[];autosize=1;strokeColor=none;fillColor=none;fontSize=16;" vertex="1" parent="1">
          <mxGeometry x="712.5" y="2093.5" width="54" height="23" as="geometry" />
        </mxCell>
        <mxCell id="PGIYKK-JV2RwreKTZmfG-105" value="&lt;font style=&quot;font-size: 20px;&quot;&gt;Value Policy&lt;/font&gt;" style="text;html=1;align=center;verticalAlign=middle;resizable=0;points=[];autosize=1;strokeColor=none;fillColor=none;fontSize=16;" vertex="1" parent="1">
          <mxGeometry x="426.5" y="2116.5" width="119" height="24" as="geometry" />
        </mxCell>
        <mxCell id="PGIYKK-JV2RwreKTZmfG-106" value="&lt;font style=&quot;font-size: 20px;&quot;&gt;Action Policy&lt;/font&gt;" style="text;html=1;align=center;verticalAlign=middle;resizable=0;points=[];autosize=1;strokeColor=none;fillColor=none;fontSize=16;" vertex="1" parent="1">
          <mxGeometry x="423.5" y="1847.5" width="125" height="24" as="geometry" />
        </mxCell>
        <mxCell id="PGIYKK-JV2RwreKTZmfG-107" value="256x1" style="text;html=1;align=center;verticalAlign=middle;resizable=0;points=[];autosize=1;strokeColor=none;fillColor=none;fontSize=20;" vertex="1" parent="1">
          <mxGeometry x="990" y="1984.5" width="65" height="28" as="geometry" />
        </mxCell>
        <mxCell id="PGIYKK-JV2RwreKTZmfG-108" value="6510x1" style="text;html=1;align=center;verticalAlign=middle;resizable=0;points=[];autosize=1;strokeColor=none;fillColor=none;fontSize=20;" vertex="1" parent="1">
          <mxGeometry x="989.5" y="1857.5" width="76" height="28" as="geometry" />
        </mxCell>
        <mxCell id="PGIYKK-JV2RwreKTZmfG-109" value="(15,11,11) @ t-1" style="text;html=1;align=center;verticalAlign=middle;resizable=0;points=[];autosize=1;strokeColor=none;fillColor=none;fontSize=20;" vertex="1" parent="1">
          <mxGeometry x="-525" y="1984.5" width="153" height="28" as="geometry" />
        </mxCell>
        <mxCell id="PGIYKK-JV2RwreKTZmfG-113" style="edgeStyle=orthogonalEdgeStyle;rounded=0;orthogonalLoop=1;jettySize=auto;html=1;exitX=0;exitY=0;exitDx=570;exitDy=160;exitPerimeter=0;entryX=1.01;entryY=0.566;entryDx=0;entryDy=0;entryPerimeter=0;fontSize=20;" edge="1" parent="1" source="PGIYKK-JV2RwreKTZmfG-110" target="PGIYKK-JV2RwreKTZmfG-109">
          <mxGeometry relative="1" as="geometry">
            <Array as="points">
              <mxPoint x="-326" y="2001" />
              <mxPoint x="-356" y="2001" />
            </Array>
          </mxGeometry>
        </mxCell>
        <mxCell id="PGIYKK-JV2RwreKTZmfG-110" value="" style="shape=cube;whiteSpace=wrap;html=1;boundedLbl=1;backgroundOutline=1;darkOpacity=0.05;darkOpacity2=0.1;direction=south;size=150;fillColor=#b0e3e6;strokeColor=#0e8088;" vertex="1" parent="1">
          <mxGeometry x="-336.5" y="1388" width="170" height="570" as="geometry" />
        </mxCell>
        <mxCell id="PGIYKK-JV2RwreKTZmfG-117" style="edgeStyle=orthogonalEdgeStyle;rounded=0;orthogonalLoop=1;jettySize=auto;html=1;exitX=0;exitY=0;exitDx=570;exitDy=160;exitPerimeter=0;entryX=0.544;entryY=0.051;entryDx=0;entryDy=0;entryPerimeter=0;fontSize=20;" edge="1" parent="1" source="PGIYKK-JV2RwreKTZmfG-111" target="PGIYKK-JV2RwreKTZmfG-114">
          <mxGeometry relative="1" as="geometry">
            <Array as="points">
              <mxPoint x="-308" y="1988" />
              <mxPoint x="-307" y="1988" />
              <mxPoint x="-307" y="2018" />
            </Array>
          </mxGeometry>
        </mxCell>
        <mxCell id="PGIYKK-JV2RwreKTZmfG-111" value="" style="shape=cube;whiteSpace=wrap;html=1;boundedLbl=1;backgroundOutline=1;darkOpacity=0.05;darkOpacity2=0.1;direction=south;size=150;fillColor=#bac8d3;strokeColor=#23445d;" vertex="1" parent="1">
          <mxGeometry x="-317.5" y="1388" width="170" height="570" as="geometry" />
        </mxCell>
        <mxCell id="PGIYKK-JV2RwreKTZmfG-116" style="edgeStyle=orthogonalEdgeStyle;rounded=0;orthogonalLoop=1;jettySize=auto;html=1;exitX=0;exitY=0;exitDx=570;exitDy=160;exitPerimeter=0;entryX=-0.007;entryY=0.566;entryDx=0;entryDy=0;entryPerimeter=0;fontSize=20;" edge="1" parent="1" source="PGIYKK-JV2RwreKTZmfG-112" target="PGIYKK-JV2RwreKTZmfG-115">
          <mxGeometry relative="1" as="geometry">
            <Array as="points">
              <mxPoint x="-288" y="2000" />
            </Array>
          </mxGeometry>
        </mxCell>
        <mxCell id="PGIYKK-JV2RwreKTZmfG-112" value="" style="shape=cube;whiteSpace=wrap;html=1;boundedLbl=1;backgroundOutline=1;darkOpacity=0.05;darkOpacity2=0.1;direction=south;size=150;fillColor=#f5f5f5;fontColor=#333333;strokeColor=#666666;" vertex="1" parent="1">
          <mxGeometry x="-297.5" y="1388" width="170" height="570" as="geometry" />
        </mxCell>
        <mxCell id="PGIYKK-JV2RwreKTZmfG-114" value="(15,11,11) @ t" style="text;html=1;align=center;verticalAlign=middle;resizable=0;points=[];autosize=1;strokeColor=none;fillColor=none;fontSize=20;" vertex="1" parent="1">
          <mxGeometry x="-380" y="2030" width="135" height="28" as="geometry" />
        </mxCell>
        <mxCell id="PGIYKK-JV2RwreKTZmfG-115" value="(4,11,11) --&amp;gt; one-hot of agent types" style="text;html=1;align=center;verticalAlign=middle;resizable=0;points=[];autosize=1;strokeColor=none;fillColor=none;fontSize=20;" vertex="1" parent="1">
          <mxGeometry x="-248" y="1984.5" width="322" height="28" as="geometry" />
        </mxCell>
        <mxCell id="PGIYKK-JV2RwreKTZmfG-121" value="4x1" style="text;html=1;align=center;verticalAlign=middle;resizable=0;points=[];autosize=1;strokeColor=none;fillColor=none;fontSize=20;" vertex="1" parent="1">
          <mxGeometry x="53" y="1721" width="42" height="28" as="geometry" />
        </mxCell>
        <mxCell id="PGIYKK-JV2RwreKTZmfG-122" value="8x1" style="text;html=1;align=center;verticalAlign=middle;resizable=0;points=[];autosize=1;strokeColor=none;fillColor=none;fontSize=20;" vertex="1" parent="1">
          <mxGeometry x="633" y="1721" width="42" height="28" as="geometry" />
        </mxCell>
        <mxCell id="PGIYKK-JV2RwreKTZmfG-123" value="Input Tensor" style="text;html=1;align=center;verticalAlign=middle;resizable=0;points=[];autosize=1;strokeColor=none;fillColor=none;fontSize=20;rotation=-45;" vertex="1" parent="1">
          <mxGeometry x="-251" y="1874" width="120" height="28" as="geometry" />
        </mxCell>
      </root>
    </mxGraphModel>
  </diagram>
</mxfile>
